<?xml version="1.0" standalone="no"?><svg xmlns="http://www.w3.org/2000/svg" viewBox="0 0 1440 320"><path fill="#d6d2b5" fill-opacity="1" d="M0,96L26.7,106.7C53.3,117,107,139,160,138.7C213.3,139,267,117,320,106.7C373.3,96,427,96,480,128C533.3,160,587,224,640,234.7C693.3,245,747,203,800,192C853.3,181,907,203,960,202.7C1013.3,203,1067,181,1120,170.7C1173.3,160,1227,160,1280,138.7C1333.3,117,1387,75,1413,53.3L1440,32L1440,320L1413.3,320C1386.7,320,1333,320,1280,320C1226.7,320,1173,320,1120,320C1066.7,320,1013,320,960,320C906.7,320,853,320,800,320C746.7,320,693,320,640,320C586.7,320,533,320,480,320C426.7,320,373,320,320,320C266.7,320,213,320,160,320C106.7,320,53,320,27,320L0,320Z"></path></svg>